<svg xmlns="http://www.w3.org/2000/svg" version="1.1" xmlns:xlink="http://www.w3.org/1999/xlink" xmlns:svgjs="http://svgjs.dev/svgjs" viewBox="0 0 8.584363083621398 5.255644929855834"><g transform="matrix(0.8200440329818751,0,0,0.8200440329818751,1.245296012801946,1.8259424072765906)"><g transform="matrix(1,0,0,1,0,0)" clip-path="url(#SvgjsClipPath108358)"><g clip-path="url(#SvgjsClipPath1083568127fb98-b7fb-43c4-93f5-63cf392530c3)"><path d=" M 7.000575075855338 3.029005464366366 L 5.707247329335085 0.7889196044468771 L 4.413919582814833 3.029005464366366 L 4.2749547478650465 2.9487717259427018 L 5.707247329335085 0.4679846507522212 L 7.139499793935912 2.9487717259427018 L 7.000575075855338 3.029005464366366 Z" fill="#173054" transform="matrix(1,0,0,1,0,0)" fill-rule="nonzero"></path></g><g clip-path="url(#SvgjsClipPath1083568127fb98-b7fb-43c4-93f5-63cf392530c3)"><path d=" M 5.627013590911421 -1.0733054643663658 L 5.787481067758749 -1.0733054643663658 L 5.787481067758749 2.99185724347621 L 5.627013590911421 2.99185724347621 Z" fill="#173054" transform="matrix(1,0,0,1,0,0)" fill-rule="nonzero"></path></g><g clip-path="url(#SvgjsClipPath1083568127fb98-b7fb-43c4-93f5-63cf392530c3)"><path d=" M 3.983465576171875 -0.4886020956039139 L 7.431029082498296 -0.4886020956039139 L 7.431029082498296 2.202838659817897 L 3.983465576171875 2.202838659817897 Z" fill="#3a868f" transform="matrix(1,0,0,1,0,0)" fill-rule="nonzero"></path></g><g clip-path="url(#SvgjsClipPath1083568127fb98-b7fb-43c4-93f5-63cf392530c3)"><path d=" M 5.284776579665282 -0.2479008803329218 L 7.190327867227303 -0.2479008803329218 L 7.190327867227303 1.9621374445469049 L 4.224166791442867 1.9621374445469049 L 4.224166791442867 -0.2479008803329218 L 4.572702151155264 -0.2479008803329218 L 5.284776579665282 -0.2479008803329218 Z" fill="#ececd9" transform="matrix(1,0,0,1,0,0)" fill-rule="nonzero"></path></g><g clip-path="url(#SvgjsClipPath1083568127fb98-b7fb-43c4-93f5-63cf392530c3)"><path d=" M 7.270601722520179 2.042371182970569 L 4.143933053019203 2.042371182970569 L 4.143933053019203 -0.3281346187565859 L 7.270601722520179 -0.3281346187565859 Z M 4.304400529866531 1.881903706123241 L 7.110134245672851 1.881903706123241 L 7.110134245672851 -0.16766714190925758 L 4.304400529866531 -0.16766714190925758 Z" fill="#173054" transform="matrix(1,0,0,1,0,0)" fill-rule="nonzero"></path></g><g clip-path="url(#SvgjsClipPath1083568127fb98-b7fb-43c4-93f5-63cf392530c3)"><path d=" M 6.565146577430113 0.46453460000000346 C 6.565157220769699 0.5200662228444706 6.543102083267261 0.5733264706442096 6.503835295462455 0.6125932584489904 C 6.464568507657649 0.6518600462537725 6.411308259857895 0.6739151837561741 6.355776637013496 0.6739045404165538 C 6.24014481184852 0.6739045404165545 6.146406696597011 0.5801664251650467 6.146406696597011 0.46453460000000346 C 6.146428803629388 0.34889245302519356 6.240134521837153 0.2551328706376248 6.35577663701361 0.25504430897581676 C 6.47142792735505 0.2551107497893499 6.565146596514991 0.3488832905736401 6.565146577430113 0.46453460000000346 Z" fill="#ececd9" transform="matrix(1,0,0,1,0,0)" fill-rule="nonzero"></path></g><g clip-path="url(#SvgjsClipPath1083568127fb98-b7fb-43c4-93f5-63cf392530c3)"><path d=" M 5.239203816240641 -0.5451267643233851 L 6.175250725560318 -0.5451267643233851 L 6.175250725560318 -0.26430867984056094 L 5.239203816240641 -0.26430867984056094 Z" fill="#ececd9" transform="matrix(1,0,0,1,0,0)" fill-rule="nonzero"></path></g><g clip-path="url(#SvgjsClipPath1083568127fb98-b7fb-43c4-93f5-63cf392530c3)"><path d=" M 6.2555245808531925 -0.18411505828610875 L 5.159010194686188 -0.18411505828610875 L 5.159010194686188 -0.6254006196162614 L 6.2555245808531925 -0.6254006196162614 Z M 5.319477671533518 -0.3445825351334372 L 6.095057104005866 -0.3445825351334372 L 6.095057104005866 -0.4649331427689323 L 5.319477671533518 -0.4649331427689323 Z" fill="#173054" transform="matrix(1,0,0,1,0,0)" fill-rule="nonzero"></path></g><g clip-path="url(#SvgjsClipPath1083568127fb98-b7fb-43c4-93f5-63cf392530c3)"><path d=" M 4.525925881654268 0.05478089787035101 L 5.047645765754143 0.05478089787035101 L 5.047645765754143 0.5765007819702266 L 4.525925881654268 0.5765007819702266 Z" fill="#225777" transform="matrix(1,0,0,1,0,0)" fill-rule="nonzero"></path></g><g clip-path="url(#SvgjsClipPath1083568127fb98-b7fb-43c4-93f5-63cf392530c3)"><path d=" M 6.627046906623971 0.05478089787035101 L 6.87051618587058 0.05478089787035101 L 6.87051618587058 0.29825017711695967 L 6.627046906623971 0.29825017711695967 Z" fill="#225777" transform="matrix(1,0,0,1,0,0)" fill-rule="nonzero"></path></g><g clip-path="url(#SvgjsClipPath1083568127fb98-b7fb-43c4-93f5-63cf392530c3)"><path d=" M 5.045198636732222 0.5715262901879592 L 6.10829567084577 0.5715262901879592 L 6.10829567084577 1.6346233243015087 L 5.045198636732222 1.6346233243015087 Z" fill="#225777" transform="matrix(1,0,0,1,0,0)" fill-rule="nonzero"></path></g><g clip-path="url(#SvgjsClipPath1083568127fb98-b7fb-43c4-93f5-63cf392530c3)"><path d=" M 5.035209536298476 0.9540406381227777 C 4.819289982216408 0.9537974478955955 4.644313251710294 0.7788207173894828 4.644070061483113 0.5629011633074152 C 4.644313251710315 0.3469816092253126 4.819289982216443 0.17200487871921566 5.035209536298511 0.17176168849205298 C 5.251119939159132 0.17202693498732646 5.426083764618565 0.34699076044676036 5.426349011113837 0.5629011633074152 C 5.426083764618578 0.7788115661680448 5.251119939159157 0.9537753916274898 5.035209536298502 0.9540406381227773 Z M 5.035209536298476 0.3322291653393814 C 4.907877056387957 0.33238389641239663 4.804692269403458 0.4355686833968968 4.804537538330441 0.5629011633074152 C 4.8046922694034535 0.6902336432179261 4.907877056387949 0.7934184302024299 5.035209536298467 0.7935731612754495 C 5.162542016208995 0.7934184302024343 5.265726803193494 0.6902336432179341 5.2658815342665095 0.5629011633074152 C 5.265726803193497 0.4355686833969048 5.162542016209002 0.33238389641240107 5.035209536298483 0.3322291653393814 Z" fill="#173054" transform="matrix(1,0,0,1,0,0)" fill-rule="nonzero"></path></g><g clip-path="url(#SvgjsClipPath1083568127fb98-b7fb-43c4-93f5-63cf392530c3)"><path d=" M 6.924152440006798 1.483703662326596 L 5.853994836911967 1.483703662326596 L 6.389073638459383 0.5570039835332756 Z M 6.131924506811538 1.323236185479268 L 6.646222770107226 1.323236185479268 L 6.389073638459383 0.8779389372279325 Z" fill="#173054" transform="matrix(1,0,0,1,0,0)" fill-rule="nonzero"></path></g></g><g><path d=" M 0.156 0.17099999999999993 C 0.132 0.2849999999999999 0.096 0.39149999999999996 0.0615 0.5025 L 0.057 0.5055 C 0.036000000000000004 0.5129999999999999 0.006 0.5175 -0.018000000000000002 0.5309999999999999 C -0.025500000000000002 0.5354999999999999 -0.0195 0.5549999999999999 -0.0195 0.564 C -0.021 0.585 -0.0075 0.5954999999999999 0.012 0.5984999999999999 C 0.015 0.5984999999999999 0.018000000000000002 0.5984999999999999 0.0195 0.5984999999999999 C 0.024 0.5984999999999999 0.027 0.5984999999999999 0.03 0.5954999999999999 C 0.0195 0.6584999999999999 -0.006 0.7515 -0.009000000000000001 0.8174999999999999 C -0.0105 0.8639999999999999 0.0105 0.972 0.0735 0.9854999999999999 C 0.0735 0.9794999999999999 0.069 0.978 0.069 0.972 C 0.0735 0.9704999999999999 0.0735 0.969 0.075 0.9674999999999999 C 0.0735 0.96 0.09 0.9554999999999999 0.096 0.9524999999999999 C 0.09 0.9404999999999999 0.0915 0.8925 0.0915 0.879 C 0.093 0.843 0.1455 0.576 0.162 0.5685 C 0.225 0.5414999999999999 0.375 0.5189999999999999 0.4515 0.5189999999999999 L 0.4575 0.5189999999999999 C 0.465 0.5189999999999999 0.468 0.5265 0.47550000000000003 0.5279999999999999 L 0.483 0.5189999999999999 C 0.47400000000000003 0.4724999999999999 0.4245 0.4604999999999999 0.387 0.45899999999999996 C 0.318 0.45899999999999996 0.255 0.46199999999999997 0.1875 0.4784999999999999 C 0.1875 0.4514999999999999 0.2685 0.22199999999999998 0.27 0.15899999999999992 L 0.276 0.1529999999999999 C 0.363 0.1289999999999999 0.4485 0.11699999999999988 0.5385 0.11699999999999988 C 0.5745 0.11849999999999994 0.7395 0.13049999999999995 0.738 0.1874999999999999 C 0.7365 0.1994999999999999 0.717 0.23099999999999998 0.7095 0.24449999999999994 L 0.7215 0.24299999999999988 C 0.7395 0.22499999999999998 0.777 0.23999999999999988 0.7815 0.17549999999999988 C 0.7815 0.15749999999999997 0.774 0.14249999999999996 0.7635000000000001 0.13049999999999995 C 0.711 0.05549999999999988 0.615 0.04349999999999998 0.5325 0.03749999999999998 C 0.4455 0.03749999999999998 0.3615 0.04949999999999988 0.276 0.06449999999999989 C 0.23700000000000002 0.0734999999999999 -0.006 0.13049999999999995 -0.015 0.12749999999999995 C -0.024 0.12749999999999995 -0.006 0.11399999999999988 -0.015 0.11399999999999988 C -0.018000000000000002 0.11249999999999993 -0.048 0.12749999999999995 -0.048 0.1319999999999999 C -0.066 0.14549999999999996 -0.051000000000000004 0.16799999999999993 -0.0525 0.18899999999999995 C -0.0525 0.20699999999999996 -0.0135 0.2084999999999999 -0.0015 0.2084999999999999 C 0.0405 0.2084999999999999 0.111 0.18599999999999994 0.153 0.17099999999999993 M 0.703467041015625 0.6629999999999999 L 0.704967041015625 0.6629999999999999 C 0.689967041015625 0.717 0.677967041015625 0.7755 0.677967041015625 0.8324999999999999 C 0.677967041015625 0.8819999999999999 0.695967041015625 0.9359999999999999 0.746967041015625 0.9554999999999999 C 0.749967041015625 0.9584999999999999 0.7769670410156251 0.9644999999999999 0.784467041015625 0.9644999999999999 C 0.863967041015625 0.9644999999999999 0.976467041015625 0.7845 1.025967041015625 0.6944999999999999 L 1.0289670410156249 0.6659999999999999 C 1.018467041015625 0.6629999999999999 1.031967041015625 0.6479999999999999 1.019967041015625 0.6495 C 1.018467041015625 0.6479999999999999 1.031967041015625 0.6164999999999999 1.0289670410156249 0.6119999999999999 C 0.995967041015625 0.6584999999999999 0.827967041015625 0.9105 0.7829670410156251 0.9105 C 0.778467041015625 0.9105 0.773967041015625 0.8775 0.773967041015625 0.8714999999999999 C 0.773967041015625 0.7709999999999999 0.800967041015625 0.6809999999999999 0.8294670410156251 0.585 C 0.839967041015625 0.5474999999999999 0.859467041015625 0.5085 0.859467041015625 0.4694999999999999 C 0.859467041015625 0.43799999999999994 0.803967041015625 0.42899999999999994 0.778467041015625 0.42899999999999994 C 0.773967041015625 0.42899999999999994 0.769467041015625 0.43199999999999994 0.766467041015625 0.4364999999999999 L 0.769467041015625 0.4424999999999999 C 0.748467041015625 0.4694999999999999 0.730467041015625 0.49649999999999994 0.713967041015625 0.5189999999999999 C 0.6944670410156251 0.492 0.644967041015625 0.477 0.613467041015625 0.477 C 0.509967041015625 0.477 0.391467041015625 0.711 0.39896704101562497 0.8069999999999999 C 0.40196704101562497 0.8594999999999999 0.436467041015625 0.9225 0.496467041015625 0.9225 C 0.551967041015625 0.9225 0.665967041015625 0.7214999999999999 0.703467041015625 0.6629999999999999 M 0.494967041015625 0.8474999999999999 L 0.491967041015625 0.837 C 0.491967041015625 0.7545 0.559467041015625 0.6194999999999999 0.6209670410156249 0.5625 C 0.625467041015625 0.5565 0.638967041015625 0.5474999999999999 0.647967041015625 0.5474999999999999 C 0.658467041015625 0.5474999999999999 0.674967041015625 0.5594999999999999 0.677967041015625 0.567 C 0.6209670410156249 0.6539999999999999 0.553467041015625 0.7605 0.494967041015625 0.8474999999999999 M 1.1264736328125 0.585 L 1.1234736328125 0.5834999999999999 L 1.1264736328125 0.5834999999999999 C 1.1594736328125 0.4484999999999999 1.2269736328125 0.32099999999999995 1.2269736328125 0.17849999999999988 C 1.2269736328125 0.15899999999999992 1.2014736328125 0.1319999999999999 1.1759736328125001 0.1319999999999999 C 1.1639736328125 0.1319999999999999 1.1654736328125 0.13649999999999995 1.1549736328125 0.14249999999999996 L 1.1534736328125 0.1499999999999999 C 1.1579736328125 0.17549999999999988 0.9419736328125 0.7155 0.9419736328125 0.879 C 0.9419736328125 0.9105 0.9509736328125 1.008 0.9914736328125 1.008 C 1.0019736328125 1.008 1.0364736328125 1.0065 1.0469736328125 1.0035 L 1.0454736328125 1.0005 C 1.0379736328125 0.9974999999999999 1.0334736328125 0.9914999999999999 1.0304736328125 0.987 L 1.0304736328125 0.9854999999999999 L 1.0364736328125 0.987 C 1.0304736328125 0.978 1.0274736328125 0.969 1.0274736328125 0.9584999999999999 C 1.0274736328125 0.9554999999999999 1.0274736328125 0.9494999999999999 1.0304736328125 0.9464999999999999 C 1.0304736328125 0.9045 1.0514736328125 0.8444999999999999 1.0634736328125 0.8009999999999999 C 1.0769736328125 0.8114999999999999 1.0859736328125 0.8444999999999999 1.1009736328125 0.8594999999999999 C 1.1369736328125 0.8985 1.1819736328125 0.9225 1.2359736328125 0.9225 L 1.2464736328125001 0.9225 L 1.2449736328125 0.9195 C 1.2374736328125 0.9195 1.2209736328125 0.9135 1.2134736328125 0.9135 L 1.2134736328125 0.9089999999999999 C 1.2194736328125 0.9089999999999999 1.2224736328125 0.9089999999999999 1.2254736328125 0.9105 C 1.2299736328125 0.9105 1.2344736328125 0.9105 1.2374736328125 0.9135 C 1.2434736328125 0.9149999999999999 1.2494736328125 0.9105 1.2554736328125 0.9105 L 1.2524736328125 0.9089999999999999 C 1.2629736328125 0.9089999999999999 1.2764736328125 0.9089999999999999 1.2884736328125 0.9059999999999999 C 1.2899736328125 0.9059999999999999 1.2914736328125 0.9059999999999999 1.2929736328125 0.9059999999999999 C 1.2974736328125 0.9059999999999999 1.3049736328125001 0.9045 1.3109736328125 0.9045 L 1.3124736328125 0.9045 C 1.3124736328125 0.9045 1.3094736328125 0.9045 1.3109736328125 0.9015 C 1.3169736328125001 0.8999999999999999 1.3214736328125 0.8985 1.3274736328125 0.8925 L 1.3349736328125 0.8909999999999999 C 1.3259736328125 0.8805 1.3154736328125 0.879 1.3064736328125 0.879 C 1.2974736328125 0.879 1.2884736328125 0.8805 1.2794736328125 0.8805 C 1.1864736328125 0.8805 1.1279736328125 0.7919999999999999 1.1129736328125 0.711 C 1.1189736328125 0.6944999999999999 1.2224736328125 0.6014999999999999 1.2299736328125 0.5999999999999999 C 1.2539736328125 0.5805 1.3649736328125 0.44999999999999996 1.3814736328125 0.4245 C 1.3934736328125 0.40049999999999997 1.4054736328125 0.3779999999999999 1.4159736328124999 0.3524999999999999 L 1.4159736328124999 0.348 L 1.4114736328125 0.3464999999999999 L 1.4084736328125 0.3464999999999999 C 1.4024736328125 0.3434999999999999 1.3994736328125001 0.3404999999999999 1.3964736328125 0.33899999999999997 C 1.3889736328125 0.3404999999999999 1.3814736328125 0.34199999999999997 1.3739736328125 0.34199999999999997 C 1.3709736328125 0.34199999999999997 1.3709736328125 0.34199999999999997 1.3694736328125 0.3404999999999999 L 1.3619736328125 0.3404999999999999 L 1.3574736328124999 0.3464999999999999 C 1.3484736328125 0.3779999999999999 1.1624736328125 0.5489999999999999 1.1264736328125 0.585 M 1.759459716796875 0.6194999999999999 C 1.7429597167968751 0.6285 1.709959716796875 0.6839999999999999 1.697959716796875 0.702 C 1.655959716796875 0.7635 1.519459716796875 0.9269999999999999 1.448959716796875 0.9269999999999999 C 1.364959716796875 0.9269999999999999 1.430959716796875 0.726 1.451959716796875 0.6884999999999999 C 1.454959716796875 0.6824999999999999 1.627459716796875 0.6809999999999999 1.627459716796875 0.5445 C 1.627459716796875 0.51 1.612459716796875 0.49949999999999994 1.582459716796875 0.49049999999999994 C 1.573459716796875 0.486 1.526959716796875 0.4694999999999999 1.516459716796875 0.4694999999999999 C 1.510459716796875 0.4694999999999999 1.490959716796875 0.4694999999999999 1.489459716796875 0.474 L 1.487959716796875 0.477 C 1.408459716796875 0.5385 1.319959716796875 0.7124999999999999 1.313959716796875 0.8174999999999999 C 1.309459716796875 0.9105 1.361959716796875 0.969 1.456459716796875 0.9824999999999999 C 1.459459716796875 0.9824999999999999 1.462459716796875 0.984 1.466959716796875 0.984 C 1.553959716796875 0.984 1.700959716796875 0.8205 1.739959716796875 0.7214999999999999 C 1.744459716796875 0.7064999999999999 1.759459716796875 0.69 1.760959716796875 0.6704999999999999 L 1.757959716796875 0.6659999999999999 C 1.757959716796875 0.6659999999999999 1.753459716796875 0.6644999999999999 1.753459716796875 0.6629999999999999 C 1.753459716796875 0.6555 1.760959716796875 0.645 1.760959716796875 0.6359999999999999 L 1.757959716796875 0.6299999999999999 C 1.759459716796875 0.627 1.759459716796875 0.6224999999999999 1.759459716796875 0.6194999999999999 M 1.550959716796875 0.5309999999999999 C 1.580959716796875 0.5625 1.541959716796875 0.6164999999999999 1.478959716796875 0.6299999999999999 C 1.4969597167968751 0.5984999999999999 1.537459716796875 0.5385 1.550959716796875 0.5309999999999999 M 2.2034377441406248 0.2054999999999999 C 2.216937744140625 0.17099999999999993 2.227437744140625 0.15449999999999997 2.237937744140625 0.12749999999999995 C 2.243937744140625 0.10799999999999998 2.264937744140625 0.05549999999999988 2.263437744140625 0.04349999999999998 L 2.258937744140625 0.026999999999999913 C 2.258937744140625 0.010499999999999954 2.227437744140625 0 2.213937744140625 0 L 2.180937744140625 0.014999999999999902 L 2.162937744140625 0.03599999999999992 C 2.059437744140625 0.17849999999999988 1.865937744140625 0.6479999999999999 1.865937744140625 0.8234999999999999 C 1.865937744140625 0.9135 1.925937744140625 1.0065 2.027937744140625 1.0065 C 2.114937744140625 1.0065 2.126937744140625 1.0035 2.204937744140625 0.963 C 2.216937744140625 0.9584999999999999 2.221437744140625 0.951 2.231937744140625 0.945 L 2.236437744140625 0.9404999999999999 C 2.252937744140625 0.9285 2.2859377441406252 0.9179999999999999 2.303937744140625 0.9135 C 2.308437744140625 0.9075 2.330937744140625 0.8895 2.338437744140625 0.8865 C 2.339937744140625 0.8835 2.345937744140625 0.8819999999999999 2.347437744140625 0.8805 L 2.345937744140625 0.8775 C 2.345937744140625 0.8714999999999999 2.347437744140625 0.8684999999999999 2.351937744140625 0.8654999999999999 C 2.348937744140625 0.8594999999999999 2.378937744140625 0.846 2.387937744140625 0.843 C 2.383437744140625 0.8414999999999999 2.384937744140625 0.837 2.387937744140625 0.8354999999999999 C 2.263437744140625 0.879 2.095437744140625 0.945 2.023437744140625 0.945 C 2.020437744140625 0.945 2.017437744140625 0.945 2.014437744140625 0.945 C 1.973937744140625 0.9404999999999999 1.973937744140625 0.8925 1.973937744140625 0.8639999999999999 C 1.973937744140625 0.6975 2.150937744140625 0.28049999999999997 2.218437744140625 0.1409999999999999 C 2.221437744140625 0.15149999999999997 2.204937744140625 0.18899999999999995 2.2034377441406248 0.2054999999999999 M 2.605471435546875 0.5354999999999999 C 2.614471435546875 0.5205 2.614471435546875 0.5369999999999999 2.618971435546875 0.5145 C 2.609971435546875 0.4949999999999999 2.582971435546875 0.477 2.558971435546875 0.477 C 2.551471435546875 0.477 2.543971435546875 0.4784999999999999 2.537971435546875 0.48149999999999993 C 2.519971435546875 0.48749999999999993 2.374471435546875 0.7214999999999999 2.381971435546875 0.8594999999999999 C 2.386471435546875 0.9165 2.434471435546875 0.9524999999999999 2.488471435546875 0.9524999999999999 C 2.540971435546875 0.951 2.594971435546875 0.873 2.612971435546875 0.8294999999999999 C 2.630971435546875 0.7829999999999999 2.657971435546875 0.6884999999999999 2.654971435546875 0.6375 C 2.651971435546875 0.6104999999999999 2.648971435546875 0.582 2.632471435546875 0.5579999999999999 C 2.624971435546875 0.5459999999999999 2.617471435546875 0.5445 2.605471435546875 0.5354999999999999 M 2.473471435546875 0.9059999999999999 C 2.473471435546875 0.8999999999999999 2.473471435546875 0.8955 2.471971435546875 0.8909999999999999 C 2.470471435546875 0.8624999999999999 2.489971435546875 0.7815 2.510971435546875 0.7214999999999999 C 2.516971435546875 0.7124999999999999 2.542471435546875 0.6435 2.572471435546875 0.5924999999999999 C 2.576971435546875 0.5999999999999999 2.579971435546875 0.6044999999999999 2.579971435546875 0.6119999999999999 C 2.585971435546875 0.6839999999999999 2.536471435546875 0.8414999999999999 2.483971435546875 0.8969999999999999 C 2.482471435546875 0.9015 2.479471435546875 0.9059999999999999 2.473471435546875 0.9059999999999999 M 3.338968505859375 0.6465 C 3.332968505859375 0.6465 3.3269685058593748 0.6479999999999999 3.319468505859375 0.6479999999999999 L 3.320968505859375 0.645 L 3.337468505859375 0.6375 C 3.332968505859375 0.6359999999999999 3.328468505859375 0.6359999999999999 3.325468505859375 0.6345 L 3.332968505859375 0.6315 C 3.325468505859375 0.6299999999999999 3.317968505859375 0.621 3.308968505859375 0.621 C 3.308968505859375 0.621 3.307468505859375 0.621 3.305968505859375 0.621 C 3.242968505859375 0.639 3.208468505859375 0.6675 3.164968505859375 0.6855 L 3.164968505859375 0.6824999999999999 C 3.164968505859375 0.6555 3.167968505859375 0.6285 3.167968505859375 0.6014999999999999 C 3.167968505859375 0.5894999999999999 3.164968505859375 0.5009999999999999 3.157468505859375 0.486 C 3.152968505859375 0.474 3.136468505859375 0.4724999999999999 3.121468505859375 0.46499999999999997 L 3.116968505859375 0.4664999999999999 C 3.107968505859375 0.4664999999999999 3.1049685058593752 0.4634999999999999 3.101968505859375 0.4634999999999999 C 3.076468505859375 0.4634999999999999 3.019468505859375 0.5205 2.999968505859375 0.5385 L 2.975968505859375 0.522 C 2.956468505859375 0.5175 2.939968505859375 0.49649999999999994 2.915968505859375 0.49649999999999994 C 2.788468505859375 0.49649999999999994 2.660968505859375 0.699 2.660968505859375 0.8009999999999999 C 2.660968505859375 0.8474999999999999 2.704468505859375 0.9179999999999999 2.758468505859375 0.9179999999999999 C 2.821468505859375 0.9179999999999999 2.966968505859375 0.72 3.002968505859375 0.6735 C 3.035968505859375 0.6315 3.049468505859375 0.603 3.080968505859375 0.564 C 3.080968505859375 0.5579999999999999 3.076468505859375 0.7214999999999999 3.064468505859375 0.744 C 2.933968505859375 0.8354999999999999 2.789968505859375 1.041 2.744968505859375 1.1925 L 2.741968505859375 1.197 C 2.740468505859375 1.2045 2.735968505859375 1.2105 2.735968505859375 1.2165 L 2.729968505859375 1.2225 C 2.729968505859375 1.2285 2.731468505859375 1.2345 2.734468505859375 1.2375 C 2.735968505859375 1.2389999999999999 2.738968505859375 1.242 2.735968505859375 1.2435 C 2.740468505859375 1.257 2.776468505859375 1.2734999999999999 2.783968505859375 1.284 L 2.785468505859375 1.284 C 2.797468505859375 1.2945 2.824468505859375 1.302 2.837968505859375 1.302 C 2.852968505859375 1.302 2.884468505859375 1.2854999999999999 2.894968505859375 1.2795 C 3.014968505859375 1.2195 3.127468505859375 0.963 3.145468505859375 0.8265 L 3.157468505859375 0.7649999999999999 C 3.2099685058593748 0.7289999999999999 3.272968505859375 0.69 3.320968505859375 0.6629999999999999 L 3.325468505859375 0.6539999999999999 C 3.329968505859375 0.6525 3.334468505859375 0.6479999999999999 3.338968505859375 0.6465 M 2.753968505859375 0.843 C 2.749468505859375 0.8114999999999999 2.761468505859375 0.7709999999999999 2.774968505859375 0.7469999999999999 C 2.807968505859375 0.6839999999999999 2.884468505859375 0.5745 2.942968505859375 0.5745 C 2.950468505859375 0.5745 2.956468505859375 0.576 2.963968505859375 0.5805 C 2.948968505859375 0.6044999999999999 2.785468505859375 0.8265 2.753968505859375 0.843 M 3.055468505859375 0.846 C 3.055468505859375 0.846 3.032968505859375 0.9195 3.029968505859375 0.9239999999999999 C 3.001468505859375 1.0035 2.927968505859375 1.1505 2.857468505859375 1.197 L 2.855968505859375 1.194 C 2.855968505859375 1.197 2.851468505859375 1.1985 2.848468505859375 1.1985 C 2.846968505859375 1.2075 2.834968505859375 1.212 2.824468505859375 1.2149999999999999 L 2.822968505859375 1.2149999999999999 C 2.822968505859375 1.1175 2.974468505859375 0.9179999999999999 3.041968505859375 0.852 C 3.046468505859375 0.8474999999999999 3.050968505859375 0.8444999999999999 3.055468505859375 0.8414999999999999 M 3.271461181640625 0.6795 C 3.251961181640625 0.738 3.239961181640625 0.7875 3.236961181640625 0.843 C 3.235461181640625 0.8805 3.257961181640625 0.9344999999999999 3.307461181640625 0.9464999999999999 C 3.316461181640625 0.9494999999999999 3.320961181640625 0.9524999999999999 3.329961181640625 0.9524999999999999 C 3.331461181640625 0.9524999999999999 3.332961181640625 0.9524999999999999 3.334461181640625 0.9524999999999999 C 3.446961181640625 0.9329999999999999 3.520461181640625 0.7695 3.515961181640625 0.639 C 3.514461181640625 0.5939999999999999 3.479961181640625 0.5459999999999999 3.440961181640625 0.5325 C 3.458961181640625 0.5055 3.464961181640625 0.4949999999999999 3.493461181640625 0.4724999999999999 L 3.493461181640625 0.4664999999999999 C 3.473961181640625 0.44999999999999996 3.458961181640625 0.4484999999999999 3.434961181640625 0.4484999999999999 C 3.388461181640625 0.4514999999999999 3.293961181640625 0.6134999999999999 3.271461181640625 0.6795 M 3.326961181640625 0.8925 C 3.317961181640625 0.861 3.335961181640625 0.8009999999999999 3.358461181640625 0.7274999999999999 C 3.377961181640625 0.6644999999999999 3.398961181640625 0.6044999999999999 3.416961181640625 0.5834999999999999 L 3.416961181640625 0.5805 C 3.440961181640625 0.5984999999999999 3.434961181640625 0.6194999999999999 3.437961181640625 0.6465 C 3.437961181640625 0.7229999999999999 3.386961181640625 0.8474999999999999 3.326961181640625 0.8925" fill="#173054" fill-rule="nonzero"></path></g><g><path d=" M 2.62091259765625 1.9337000000000002 C 2.61641259765625 1.9342000000000001 2.61291259765625 1.9397000000000002 2.6104125976562496 1.9447000000000003 C 2.61291259765625 1.9562000000000002 2.62441259765625 1.9652000000000003 2.63641259765625 1.9647000000000001 C 2.67291259765625 1.9632000000000003 2.69541259765625 1.9067000000000003 2.69491259765625 1.8742000000000003 C 2.69241259765625 1.8062000000000002 2.64091259765625 1.7892000000000001 2.6399125976562496 1.7492 C 2.6389125976562497 1.7207000000000001 2.6669125976562498 1.6787 2.69791259765625 1.6777000000000002 C 2.6999125976562497 1.6787 2.70191259765625 1.6792000000000002 2.70341259765625 1.6792000000000002 C 2.7089125976562496 1.6792000000000002 2.7134125976562498 1.6752000000000002 2.7134125976562498 1.6697000000000002 C 2.7129125976562496 1.6587000000000003 2.7009125976562496 1.6502000000000003 2.6904125976562496 1.6502000000000003 C 2.65641259765625 1.6512000000000002 2.6144125976562496 1.7102000000000002 2.6149125976562497 1.7427000000000001 C 2.6174125976562497 1.8082000000000003 2.66841259765625 1.8207000000000002 2.66991259765625 1.8727000000000003 C 2.6704125976562496 1.8942 2.66091259765625 1.9387000000000003 2.63391259765625 1.9397000000000002 C 2.62991259765625 1.9397000000000002 2.62441259765625 1.9392000000000003 2.62091259765625 1.9337000000000002 M 2.7956574707031248 1.6897000000000002 C 2.7981574707031247 1.6897000000000002 2.801157470703125 1.6897000000000002 2.804157470703125 1.6897000000000002 C 2.8101574707031247 1.6897000000000002 2.816157470703125 1.6897000000000002 2.818657470703125 1.6897000000000002 C 2.8231574707031246 1.6902000000000001 2.826657470703125 1.6862000000000001 2.826657470703125 1.6817000000000002 C 2.8261574707031247 1.6757000000000002 2.8231574707031246 1.6707 2.817657470703125 1.6677000000000002 C 2.812157470703125 1.6652000000000002 2.789657470703125 1.6637000000000002 2.768157470703125 1.6637000000000002 C 2.761157470703125 1.6637000000000002 2.754657470703125 1.6637000000000002 2.7486574707031246 1.6642000000000001 C 2.748157470703125 1.6642000000000001 2.7476574707031247 1.6642000000000001 2.7476574707031247 1.6642000000000001 C 2.743157470703125 1.6642000000000001 2.739157470703125 1.6622000000000003 2.734657470703125 1.6622000000000003 C 2.734657470703125 1.6622000000000003 2.7341574707031246 1.6622000000000003 2.733657470703125 1.6622000000000003 C 2.7301574707031246 1.6622000000000003 2.726657470703125 1.6657000000000002 2.727157470703125 1.6697000000000002 C 2.727157470703125 1.6722000000000001 2.726657470703125 1.6757000000000002 2.7291574707031248 1.6777000000000002 C 2.7301574707031246 1.6852000000000003 2.7331574707031248 1.6917000000000002 2.7421574707031247 1.6912000000000003 C 2.751157470703125 1.6907 2.745657470703125 1.6902000000000001 2.755157470703125 1.6897000000000002 C 2.761157470703125 1.6897000000000002 2.764157470703125 1.6897000000000002 2.764157470703125 1.6957000000000002 C 2.7636574707031247 1.7207000000000001 2.759157470703125 1.7712000000000003 2.757157470703125 1.8042000000000002 C 2.7541574707031247 1.8462000000000003 2.749657470703125 1.8937000000000002 2.750657470703125 1.9367000000000003 C 2.751157470703125 1.9482000000000002 2.756157470703125 1.9577000000000002 2.769157470703125 1.9572000000000003 C 2.775157470703125 1.9572000000000003 2.7806574707031246 1.9537000000000002 2.7806574707031246 1.9472000000000003 C 2.7806574707031246 1.9412000000000003 2.777657470703125 1.9362000000000001 2.777157470703125 1.9302000000000001 C 2.776157470703125 1.8902 2.785657470703125 1.7542000000000002 2.789157470703125 1.7197000000000002 C 2.7901574707031247 1.7097000000000002 2.7901574707031247 1.6992000000000003 2.7956574707031248 1.6897000000000002 M 2.8889299316406247 1.8047000000000002 C 2.892429931640625 1.8392000000000002 2.891929931640625 1.8852000000000002 2.8979299316406246 1.9497000000000002 C 2.898429931640625 1.9582000000000002 2.901429931640625 1.9612000000000003 2.9099299316406246 1.9617000000000002 C 2.914929931640625 1.9617000000000002 2.926929931640625 1.9607 2.9274299316406247 1.9572000000000003 C 2.9274299316406247 1.9542000000000002 2.925429931640625 1.9542000000000002 2.9249299316406248 1.9507000000000003 C 2.918429931640625 1.9132000000000002 2.916429931640625 1.8352000000000002 2.9154299316406247 1.8037000000000003 C 2.914929931640625 1.7987000000000002 2.918929931640625 1.7972000000000001 2.9194299316406247 1.7917000000000003 C 2.920429931640625 1.7862000000000002 2.918429931640625 1.7802000000000002 2.914429931640625 1.7787000000000002 C 2.9129299316406247 1.7467000000000001 2.910429931640625 1.6972000000000003 2.907929931640625 1.6652000000000002 C 2.906929931640625 1.6587000000000003 2.890929931640625 1.6547000000000003 2.885429931640625 1.6547000000000003 C 2.874929931640625 1.6552000000000002 2.869929931640625 1.6657000000000002 2.867929931640625 1.6737000000000002 C 2.850929931640625 1.7442000000000002 2.8384299316406247 1.8187000000000002 2.823929931640625 1.8917000000000002 C 2.8209299316406247 1.9092000000000002 2.816429931640625 1.9357000000000002 2.817429931640625 1.9527000000000003 C 2.817429931640625 1.9577000000000002 2.8289299316406247 1.9637000000000002 2.833429931640625 1.9637000000000002 C 2.8394299316406246 1.9632000000000003 2.8424299316406247 1.9592000000000003 2.842929931640625 1.9537000000000002 C 2.848429931640625 1.9062000000000001 2.859929931640625 1.8382000000000003 2.865929931640625 1.8057000000000003 C 2.876429931640625 1.8052000000000001 2.8794299316406247 1.8057000000000003 2.8889299316406247 1.8047000000000002 M 2.887929931640625 1.7172000000000003 C 2.8889299316406247 1.7357000000000002 2.888429931640625 1.7607000000000002 2.8889299316406247 1.7792000000000003 C 2.8874299316406247 1.7797000000000003 2.8824299316406248 1.7802000000000002 2.877929931640625 1.7802000000000002 C 2.874929931640625 1.7802000000000002 2.871929931640625 1.7797000000000003 2.870929931640625 1.7797000000000003 C 2.873429931640625 1.7577000000000003 2.883929931640625 1.7127000000000003 2.8874299316406247 1.6957000000000002 M 3.0101914062499997 1.8082000000000003 L 3.00819140625 1.8032000000000001 C 2.9996914062499997 1.7567000000000002 2.98719140625 1.6887000000000003 2.97769140625 1.6627000000000003 C 2.97369140625 1.6512000000000002 2.96569140625 1.6472000000000002 2.9541914062499997 1.6472000000000002 C 2.9491914062499998 1.6472000000000002 2.94319140625 1.6522000000000001 2.94319140625 1.6572000000000002 C 2.94319140625 1.6642000000000001 2.9541914062499997 1.6787 2.95619140625 1.6882000000000001 C 2.96719140625 1.7322000000000002 2.97619140625 1.7752000000000003 2.98419140625 1.8207000000000002 C 2.98719140625 1.8362000000000003 2.9861914062499997 1.8472000000000002 2.99269140625 1.8622000000000003 C 2.98569140625 1.8872000000000002 2.97269140625 1.9247000000000003 2.96819140625 1.9477000000000002 C 2.9676914062499997 1.9617000000000002 2.97219140625 1.9677000000000002 2.98519140625 1.9682000000000002 L 2.98919140625 1.9637000000000002 C 2.99219140625 1.9467000000000003 3.00169140625 1.9212000000000002 3.0076914062499998 1.9022000000000001 C 3.03219140625 1.8252000000000002 3.05569140625 1.7467000000000001 3.08269140625 1.6712000000000002 C 3.08369140625 1.6687000000000003 3.08369140625 1.6667000000000003 3.08369140625 1.6642000000000001 C 3.08369140625 1.6557000000000002 3.07469140625 1.6502000000000003 3.06669140625 1.6502000000000003 C 3.06019140625 1.6502000000000003 3.0566914062499997 1.6547000000000003 3.05469140625 1.6602000000000001 C 3.04769140625 1.6807000000000003 3.04419140625 1.7017000000000002 3.03719140625 1.7227000000000001 C 3.0286914062499997 1.7487000000000001 3.02119140625 1.7747000000000002 3.0126914062499996 1.8007000000000002 M 3.179168212890625 1.7832000000000001 C 3.1786682128906247 1.7657000000000003 3.184168212890625 1.7032000000000003 3.187168212890625 1.6842000000000001 C 3.187668212890625 1.6812000000000002 3.1866682128906247 1.6782000000000001 3.188168212890625 1.6762000000000001 C 3.1971682128906247 1.6752000000000002 3.2106682128906248 1.6732000000000002 3.219168212890625 1.6732000000000002 C 3.220668212890625 1.6732000000000002 3.222168212890625 1.6732000000000002 3.223668212890625 1.6732000000000002 C 3.226168212890625 1.6732000000000002 3.2291682128906247 1.6727000000000003 3.230168212890625 1.6697000000000002 C 3.230668212890625 1.6687000000000003 3.230668212890625 1.6667000000000003 3.230668212890625 1.6662000000000003 C 3.231668212890625 1.6562000000000001 3.215168212890625 1.6512000000000002 3.207668212890625 1.6502000000000003 C 3.204668212890625 1.6497000000000002 3.201168212890625 1.6497000000000002 3.198168212890625 1.6497000000000002 C 3.1946682128906247 1.6497000000000002 3.191668212890625 1.6497000000000002 3.188668212890625 1.6507000000000003 C 3.1866682128906247 1.6507000000000003 3.184668212890625 1.6502000000000003 3.1826682128906247 1.6502000000000003 C 3.171668212890625 1.6502000000000003 3.157668212890625 1.6532000000000002 3.156668212890625 1.6652000000000002 C 3.156668212890625 1.6712000000000002 3.158168212890625 1.6757000000000002 3.157668212890625 1.6827 C 3.155168212890625 1.7237000000000002 3.149668212890625 1.7772000000000001 3.146168212890625 1.8242000000000003 C 3.143668212890625 1.8562000000000003 3.142168212890625 1.8947000000000003 3.142168212890625 1.9277000000000002 C 3.142168212890625 1.9362000000000001 3.143168212890625 1.9552000000000003 3.155668212890625 1.9552000000000003 C 3.166168212890625 1.9552000000000003 3.171668212890625 1.9522000000000002 3.1706682128906247 1.9412000000000003 C 3.168668212890625 1.9127000000000003 3.1706682128906247 1.8847000000000003 3.172168212890625 1.8557000000000001 C 3.173168212890625 1.8422000000000003 3.174168212890625 1.8247000000000002 3.175668212890625 1.8102000000000003 C 3.181168212890625 1.8102000000000003 3.185168212890625 1.8102000000000003 3.189668212890625 1.8082000000000003 C 3.201168212890625 1.8082000000000003 3.225668212890625 1.7997000000000003 3.225668212890625 1.7907000000000002 C 3.225668212890625 1.7867000000000002 3.2251682128906247 1.7867000000000002 3.223168212890625 1.7832000000000001 C 3.220168212890625 1.7827000000000002 3.2171682128906247 1.7827000000000002 3.214168212890625 1.7827000000000002 C 3.204668212890625 1.7827000000000002 3.195668212890625 1.7842000000000002 3.185668212890625 1.7842000000000002 C 3.183668212890625 1.7842000000000002 3.181668212890625 1.7837000000000003 3.179168212890625 1.7832000000000001 M 3.30992919921875 1.8047000000000002 C 3.31342919921875 1.8392000000000002 3.31292919921875 1.8852000000000002 3.3189291992187497 1.9497000000000002 C 3.31942919921875 1.9582000000000002 3.32242919921875 1.9612000000000003 3.3309291992187497 1.9617000000000002 C 3.33592919921875 1.9617000000000002 3.34792919921875 1.9607 3.34842919921875 1.9572000000000003 C 3.34842919921875 1.9542000000000002 3.34642919921875 1.9542000000000002 3.34592919921875 1.9507000000000003 C 3.33942919921875 1.9132000000000002 3.33742919921875 1.8352000000000002 3.33642919921875 1.8037000000000003 C 3.33592919921875 1.7987000000000002 3.33992919921875 1.7972000000000001 3.34042919921875 1.7917000000000003 C 3.34142919921875 1.7862000000000002 3.33942919921875 1.7802000000000002 3.33542919921875 1.7787000000000002 C 3.33392919921875 1.7467000000000001 3.33142919921875 1.6972000000000003 3.32892919921875 1.6652000000000002 C 3.32792919921875 1.6587000000000003 3.31192919921875 1.6547000000000003 3.30642919921875 1.6547000000000003 C 3.29592919921875 1.6552000000000002 3.29092919921875 1.6657000000000002 3.28892919921875 1.6737000000000002 C 3.27192919921875 1.7442000000000002 3.25942919921875 1.8187000000000002 3.24492919921875 1.8917000000000002 C 3.24192919921875 1.9092000000000002 3.23742919921875 1.9357000000000002 3.23842919921875 1.9527000000000003 C 3.23842919921875 1.9577000000000002 3.24992919921875 1.9637000000000002 3.25442919921875 1.9637000000000002 C 3.2604291992187497 1.9632000000000003 3.26342919921875 1.9592000000000003 3.26392919921875 1.9537000000000002 C 3.26942919921875 1.9062000000000001 3.28092919921875 1.8382000000000003 3.28692919921875 1.8057000000000003 C 3.29742919921875 1.8052000000000001 3.3004291992187498 1.8057000000000003 3.30992919921875 1.8047000000000002 M 3.30892919921875 1.7172000000000003 C 3.30992919921875 1.7357000000000002 3.30942919921875 1.7607000000000002 3.30992919921875 1.7792000000000003 C 3.30842919921875 1.7797000000000003 3.30342919921875 1.7802000000000002 3.29892919921875 1.7802000000000002 C 3.29592919921875 1.7802000000000002 3.29292919921875 1.7797000000000003 3.29192919921875 1.7797000000000003 C 3.29442919921875 1.7577000000000003 3.30492919921875 1.7127000000000003 3.30842919921875 1.6957000000000002 M 3.405690673828125 1.7497000000000003 C 3.406190673828125 1.7302000000000002 3.411190673828125 1.6997000000000002 3.412190673828125 1.6797000000000002 C 3.412690673828125 1.6697000000000002 3.404190673828125 1.6587000000000003 3.394690673828125 1.6587000000000003 C 3.394190673828125 1.6587000000000003 3.393690673828125 1.6587000000000003 3.393690673828125 1.6587000000000003 C 3.388690673828125 1.6587000000000003 3.385190673828125 1.6617000000000002 3.384690673828125 1.6667000000000003 C 3.3831906738281248 1.6842000000000001 3.381690673828125 1.7002000000000002 3.380690673828125 1.7167000000000001 C 3.378690673828125 1.7397000000000002 3.376190673828125 1.7677000000000003 3.374190673828125 1.7902000000000002 C 3.371690673828125 1.8307000000000002 3.367690673828125 1.8837000000000002 3.367690673828125 1.9237000000000002 C 3.367690673828125 1.9332000000000003 3.369190673828125 1.9602000000000002 3.382190673828125 1.9602000000000002 C 3.382690673828125 1.9602000000000002 3.383690673828125 1.9597000000000002 3.384190673828125 1.9592000000000003 C 3.393190673828125 1.9592000000000003 3.393690673828125 1.9537000000000002 3.393690673828125 1.9487000000000003 C 3.392690673828125 1.9137000000000002 3.396190673828125 1.8722000000000003 3.399190673828125 1.8372000000000002 C 3.399690673828125 1.8337000000000003 3.400190673828125 1.8297000000000003 3.400190673828125 1.8267000000000002 C 3.411190673828125 1.8442000000000003 3.443190673828125 1.9007000000000003 3.463690673828125 1.9007000000000003 C 3.467690673828125 1.9007000000000003 3.474190673828125 1.8992000000000002 3.474190673828125 1.8947000000000003 C 3.474190673828125 1.8897000000000002 3.412190673828125 1.8062000000000002 3.412190673828125 1.7882000000000002 C 3.421190673828125 1.7727000000000002 3.4496906738281248 1.7352000000000003 3.470690673828125 1.7142000000000002 C 3.478190673828125 1.7062000000000002 3.476690673828125 1.6877000000000002 3.463690673828125 1.6877000000000002 C 3.450190673828125 1.6877000000000002 3.418190673828125 1.7417000000000002 3.405690673828125 1.7497000000000003 M 3.51645458984375 1.6752000000000002 C 3.50395458984375 1.6822000000000001 3.50495458984375 1.6822000000000001 3.50345458984375 1.6952000000000003 C 3.49895458984375 1.7437000000000002 3.49345458984375 1.7932000000000001 3.48995458984375 1.8417000000000001 C 3.48745458984375 1.8727000000000003 3.48645458984375 1.9047000000000003 3.48645458984375 1.9362000000000001 C 3.48645458984375 1.9432000000000003 3.48845458984375 1.9547000000000003 3.49795458984375 1.9547000000000003 C 3.52345458984375 1.9542000000000002 3.54045458984375 1.9402000000000001 3.56145458984375 1.9372000000000003 C 3.56745458984375 1.9367000000000003 3.57145458984375 1.9347000000000003 3.57145458984375 1.9287000000000003 C 3.57145458984375 1.9187000000000003 3.55995458984375 1.9157000000000002 3.55145458984375 1.9157000000000002 C 3.53995458984375 1.9157000000000002 3.52645458984375 1.9232000000000002 3.51445458984375 1.9267000000000003 C 3.51395458984375 1.8917000000000002 3.51495458984375 1.8607000000000002 3.51945458984375 1.8267000000000002 C 3.52045458984375 1.8197 3.51895458984375 1.8127000000000002 3.52495458984375 1.8112000000000001 C 3.53445458984375 1.8087000000000002 3.54945458984375 1.8082000000000003 3.55895458984375 1.8072000000000001 C 3.56195458984375 1.8067000000000002 3.56595458984375 1.8047000000000002 3.56895458984375 1.8047000000000002 C 3.57295458984375 1.8032000000000001 3.57645458984375 1.7977000000000003 3.57645458984375 1.7937000000000003 C 3.57645458984375 1.7882000000000002 3.57245458984375 1.7867000000000002 3.56645458984375 1.7867000000000002 L 3.52395458984375 1.7852000000000001 C 3.52645458984375 1.7642000000000002 3.52745458984375 1.7272000000000003 3.53195458984375 1.7037000000000002 C 3.53295458984375 1.6992000000000003 3.53495458984375 1.6957000000000002 3.53495458984375 1.6917000000000002 C 3.53495458984375 1.6882000000000001 3.53095458984375 1.6847000000000003 3.52895458984375 1.6827 L 3.57195458984375 1.6802000000000001 C 3.57745458984375 1.6802000000000001 3.58145458984375 1.6777000000000002 3.58095458984375 1.6717000000000002 C 3.57995458984375 1.6572000000000002 3.56395458984375 1.6542000000000003 3.54895458984375 1.6542000000000003 C 3.53995458984375 1.6542000000000003 3.53145458984375 1.6552000000000002 3.52595458984375 1.6557000000000002 C 3.51995458984375 1.6562000000000001 3.51745458984375 1.6592000000000002 3.51545458984375 1.6642000000000001" fill="#225777" fill-rule="nonzero"></path></g></g><defs><clipPath id="SvgjsClipPath108358"><path d=" M 3.983465576171875 -1.0733054643663658 h 3.447563506326421 v 4.102310928732732 h -3.447563506326421 Z"></path></clipPath><clipPath id="SvgjsClipPath1083568127fb98-b7fb-43c4-93f5-63cf392530c3"><path d=" M 3.983465576171875 -1.0733054643663658 L 7.431029082498296 -1.0733054643663658 L 7.431029082498296 3.029005464366366 L 3.983465576171875 3.029005464366366 Z"></path></clipPath></defs></svg>